<?xml version="1.0" encoding="utf-8"?>
<!-- Generator: Adobe Illustrator 28.3.0, SVG Export Plug-In . SVG Version: 6.00 Build 0)  -->
<svg version="1.1" xmlns="http://www.w3.org/2000/svg" xmlns:xlink="http://www.w3.org/1999/xlink" x="0px" y="0px"
	 viewBox="0 0 125.21 70.1" style="enable-background:new 0 0 125.21 70.1;" xml:space="preserve">
<style type="text/css">
	.st0{fill:#590A1C;}
	.st1{fill:#FFF200;}
	.st2{fill:#FFFFFF;}
	.st3{fill:none;}
	.st4{fill:#BE1E2D;}
	.st5{fill:none;stroke:#FFFFFF;stroke-width:0.25;stroke-linecap:round;stroke-linejoin:round;stroke-miterlimit:10;}
	.st6{fill:#A4A8D4;}
	.st7{fill:#C62127;}
	.st8{fill:#941B1E;}
	.st9{fill:#401119;}
	.st10{fill:#1E2858;}
	.st11{fill:#C72127;}
	.st12{fill:#E02740;}
	.st13{fill:#3B54A5;}
	.st14{fill:#293682;}
	.st15{fill:#140E3E;}
	.st16{fill:#3A180C;}
	.st17{fill:#8B2D1C;}
	.st18{fill:#8EB7CC;}
	.st19{clip-path:url(#SVGID_00000165957457624912228240000010185142212181886856_);}
	.st20{fill:none;stroke:#FFFFFF;stroke-width:20;stroke-miterlimit:10;}
	.st21{fill:#00A651;}
	.st22{fill:none;stroke:#000000;stroke-width:1.4;stroke-miterlimit:10;}
</style>
<g id="Layer_1">
	<g>
		<path d="M29.19,30.01c-0.17,0.38-0.44,0.84-0.8,1.36l1.44,1.12c0.75-0.98,1.29-1.94,1.6-2.87c0.32-0.93,0.48-2.03,0.48-3.32V24.3
			h-3.69v4.19h1.48C29.53,29.12,29.36,29.63,29.19,30.01z"/>
		<path d="M55.55,36.83c0-0.91-0.17-1.75-0.52-2.51s-0.94-1.57-1.77-2.41c-0.33-0.34-1.28-1.17-2.85-2.48
			c-1.67-1.42-2.68-2.34-3.01-2.77c-0.24-0.32-0.37-0.66-0.37-1.03s0.17-0.69,0.51-0.97s0.78-0.43,1.32-0.43
			c1.11,0,2.19,0.74,3.26,2.23l3.04-2.68c-1.13-1.32-2.19-2.23-3.16-2.72s-2-0.75-3.07-0.75c-1.67,0-3.08,0.53-4.22,1.6
			s-1.71,2.35-1.71,3.85c0,1.04,0.34,2.07,1.03,3.11c0.69,1.04,2.2,2.52,4.55,4.43c1.23,1.01,2.03,1.75,2.39,2.24
			s0.54,0.98,0.54,1.46c0,0.54-0.24,1.01-0.72,1.42c-0.48,0.41-1.07,0.62-1.78,0.62c-1.25,0-2.36-0.82-3.33-2.44l-5.06-9.65
			l-4.13,0.48l-3.65,14.15l-6.52,0.89c-1.65,0-2.98-1.34-2.98-2.98V24.84h-4.1v15.57c0,3.3,2.68,5.98,5.98,5.98l6.61-0.86l-1.1,4.27
			l4.23-0.49l1.15-4.33L45,43.82l2.11,4.07l4.23-0.49l-2.34-4.47c1.93-0.02,3.5-0.59,4.7-1.72C54.94,40.06,55.55,38.6,55.55,36.83z
			 M39.25,32.86l2.83,5.35L42,38.27c0.27,0.54,0.57,1.02,0.88,1.46l0.08,0.15l-5.73,0.67L39.25,32.86z"/>
		<polygon points="68.96,24.84 55.92,24.84 55.92,28.9 62.93,28.9 55.29,46.39 68.46,46.39 68.46,42.45 61.29,42.45 		"/>
		<path d="M105.59,30.91c-0.34-1.04-0.88-1.94-1.64-2.7c-1.18-1.18-2.55-1.8-4.12-1.85c-1.56-0.05-2.87,0.45-3.93,1.51
			c-0.73,0.73-1.22,1.71-1.47,2.93c-0.25,1.22-0.22,3.34,0.08,6.35c0.16,1.58,0.2,2.67,0.11,3.28c-0.09,0.6-0.31,1.07-0.65,1.42
			c-0.38,0.38-0.88,0.55-1.51,0.5c-0.63-0.05-1.19-0.32-1.69-0.82c-0.88-0.88-1.09-2.25-0.63-4.1c0.62-1.41,0.95-2.95,0.95-4.64
			c0-3.17-1.1-5.86-3.29-8.07s-4.81-3.31-7.86-3.31c-2.01,0-3.89,0.51-5.64,1.52s-3.11,2.38-4.11,4.11c-1,1.73-1.5,3.62-1.5,5.68
			c0,3.08,1.07,5.73,3.21,7.97s4.83,3.35,8.06,3.35c2.43,0,4.57-0.69,6.43-2.04c0.36,0.79,0.87,1.53,1.55,2.22
			c1.39,1.39,2.92,2.11,4.6,2.16c1.68,0.05,3.14-0.55,4.39-1.8c0.64-0.64,1.11-1.36,1.41-2.14c0.3-0.79,0.45-1.77,0.45-2.95
			c0.01-0.48-0.08-1.73-0.26-3.76c-0.18-2.18-0.24-3.55-0.17-4.08c0.05-0.4,0.21-0.73,0.47-0.98c0.26-0.26,0.61-0.36,1.05-0.33
			c0.45,0.04,0.86,0.25,1.24,0.63c0.78,0.78,1.02,2.07,0.73,3.88l4.04,0.25C106.03,33.33,105.93,31.95,105.59,30.91z M79.96,40.06
			c-1.72,0-3.25-0.54-4.57-1.63c-1.71-1.39-2.57-3.27-2.57-5.65c0-2.14,0.68-3.9,2.04-5.29s3.04-2.08,5.03-2.08
			c1.97,0,3.65,0.71,5.03,2.13s2.07,3.16,2.07,5.21c0,2.06-0.68,3.79-2.05,5.2S81.91,40.06,79.96,40.06z"/>
	</g>
</g>
<g id="Layer_2">
</g>
</svg>
